<svg width="115" height="42" viewBox="0 0 115 42" fill="none" xmlns="http://www.w3.org/2000/svg">
<path d="M43.608 38.18C43.024 38.18 42.492 38.084 42.012 37.892C41.532 37.7 41.12 37.42 40.776 37.052C40.432 36.684 40.164 36.232 39.972 35.696C39.788 35.152 39.696 34.532 39.696 33.836C39.696 33.14 39.8 32.524 40.008 31.988C40.224 31.444 40.512 30.988 40.872 30.62C41.232 30.252 41.652 29.972 42.132 29.78C42.612 29.588 43.124 29.492 43.668 29.492C44.012 29.492 44.32 29.516 44.592 29.564C44.872 29.612 45.112 29.668 45.312 29.732C45.52 29.796 45.688 29.86 45.816 29.924C45.944 29.988 46.032 30.036 46.08 30.068L45.744 31.028C45.672 30.98 45.568 30.928 45.432 30.872C45.296 30.816 45.14 30.76 44.964 30.704C44.796 30.648 44.608 30.604 44.4 30.572C44.2 30.532 43.996 30.512 43.788 30.512C43.348 30.512 42.952 30.588 42.6 30.74C42.248 30.892 41.948 31.112 41.7 31.4C41.452 31.688 41.26 32.04 41.124 32.456C40.996 32.864 40.932 33.324 40.932 33.836C40.932 34.332 40.988 34.784 41.1 35.192C41.22 35.6 41.396 35.952 41.628 36.248C41.86 36.536 42.148 36.76 42.492 36.92C42.844 37.08 43.252 37.16 43.716 37.16C44.252 37.16 44.696 37.104 45.048 36.992C45.4 36.88 45.664 36.78 45.84 36.692L46.14 37.652C46.084 37.692 45.984 37.744 45.84 37.808C45.696 37.864 45.516 37.92 45.3 37.976C45.084 38.032 44.832 38.08 44.544 38.12C44.256 38.16 43.944 38.18 43.608 38.18ZM60.643 33.836C60.643 33.124 60.747 32.496 60.955 31.952C61.171 31.408 61.459 30.956 61.819 30.596C62.187 30.228 62.611 29.952 63.091 29.768C63.579 29.584 64.095 29.492 64.639 29.492C65.175 29.492 65.679 29.584 66.151 29.768C66.631 29.952 67.051 30.228 67.411 30.596C67.771 30.956 68.055 31.408 68.263 31.952C68.479 32.496 68.587 33.124 68.587 33.836C68.587 34.548 68.479 35.176 68.263 35.72C68.055 36.264 67.771 36.72 67.411 37.088C67.051 37.448 66.631 37.72 66.151 37.904C65.679 38.088 65.175 38.18 64.639 38.18C64.095 38.18 63.579 38.088 63.091 37.904C62.611 37.72 62.187 37.448 61.819 37.088C61.459 36.72 61.171 36.264 60.955 35.72C60.747 35.176 60.643 34.548 60.643 33.836ZM61.867 33.836C61.867 34.34 61.931 34.8 62.059 35.216C62.187 35.624 62.367 35.972 62.599 36.26C62.839 36.548 63.127 36.772 63.463 36.932C63.807 37.084 64.191 37.16 64.615 37.16C65.039 37.16 65.419 37.084 65.755 36.932C66.091 36.772 66.375 36.548 66.607 36.26C66.847 35.972 67.031 35.624 67.159 35.216C67.287 34.8 67.351 34.34 67.351 33.836C67.351 33.332 67.287 32.876 67.159 32.468C67.031 32.052 66.847 31.7 66.607 31.412C66.375 31.124 66.091 30.904 65.755 30.752C65.419 30.592 65.039 30.512 64.615 30.512C64.191 30.512 63.807 30.592 63.463 30.752C63.127 30.904 62.839 31.124 62.599 31.412C62.367 31.7 62.187 32.052 62.059 32.468C61.931 32.876 61.867 33.332 61.867 33.836ZM87.7909 36.848C87.7109 36.656 87.6029 36.412 87.4669 36.116C87.3389 35.82 87.1989 35.5 87.0469 35.156C86.8949 34.812 86.7309 34.46 86.5549 34.1C86.3869 33.732 86.2269 33.388 86.0749 33.068C85.9229 32.74 85.7789 32.448 85.6429 32.192C85.5149 31.936 85.4109 31.74 85.3309 31.604C85.2429 32.548 85.1709 33.572 85.1149 34.676C85.0589 35.772 85.0109 36.88 84.9709 38H83.8309C83.8629 37.28 83.8989 36.556 83.9389 35.828C83.9789 35.092 84.0229 34.372 84.0709 33.668C84.1269 32.956 84.1829 32.264 84.2389 31.592C84.3029 30.92 84.3709 30.284 84.4429 29.684H85.4629C85.6789 30.036 85.9109 30.452 86.1589 30.932C86.4069 31.412 86.6549 31.916 86.9029 32.444C87.1509 32.964 87.3909 33.488 87.6229 34.016C87.8549 34.536 88.0669 35.012 88.2589 35.444C88.4509 35.012 88.6629 34.536 88.8949 34.016C89.1269 33.488 89.3669 32.964 89.6149 32.444C89.8629 31.916 90.1109 31.412 90.3589 30.932C90.6069 30.452 90.8389 30.036 91.0549 29.684H92.0749C92.3469 32.364 92.5509 35.136 92.6869 38H91.5469C91.5069 36.88 91.4589 35.772 91.4029 34.676C91.3469 33.572 91.2749 32.548 91.1869 31.604C91.1069 31.74 90.9989 31.936 90.8629 32.192C90.7349 32.448 90.5949 32.74 90.4429 33.068C90.2909 33.388 90.1269 33.732 89.9509 34.1C89.7829 34.46 89.6229 34.812 89.4709 35.156C89.3189 35.5 89.1749 35.82 89.0389 36.116C88.9109 36.412 88.8069 36.656 88.7269 36.848H87.7909ZM110.46 29.6C111.628 29.6 112.524 29.824 113.148 30.272C113.78 30.712 114.096 31.372 114.096 32.252C114.096 32.732 114.008 33.144 113.832 33.488C113.664 33.824 113.416 34.1 113.088 34.316C112.768 34.524 112.376 34.676 111.912 34.772C111.448 34.868 110.924 34.916 110.34 34.916H109.416V38H108.252V29.804C108.58 29.724 108.944 29.672 109.344 29.648C109.752 29.616 110.124 29.6 110.46 29.6ZM110.556 30.62C110.06 30.62 109.68 30.632 109.416 30.656V33.92H110.292C110.692 33.92 111.052 33.896 111.372 33.848C111.692 33.792 111.96 33.704 112.176 33.584C112.4 33.456 112.572 33.284 112.692 33.068C112.812 32.852 112.872 32.576 112.872 32.24C112.872 31.92 112.808 31.656 112.68 31.448C112.56 31.24 112.392 31.076 112.176 30.956C111.968 30.828 111.724 30.74 111.444 30.692C111.164 30.644 110.868 30.62 110.556 30.62Z" fill="white"/>
<path d="M45.68 12.84C46.24 11.8933 46.7733 10.9467 47.28 10C47.7867 9.05333 48.2533 8.1 48.68 7.14H52.12C51.36 8.63333 50.5733 10.08 49.76 11.48C48.9467 12.88 48.0867 14.2867 47.18 15.7V21H44.06V15.74C43.1533 14.3267 42.2867 12.9133 41.46 11.5C40.6467 10.0867 39.86 8.63333 39.1 7.14H42.72C43.1467 8.1 43.6067 9.05333 44.1 10C44.5933 10.9467 45.12 11.8933 45.68 12.84ZM55.5442 14.06C55.5442 14.74 55.6242 15.3533 55.7842 15.9C55.9576 16.4467 56.1976 16.92 56.5042 17.32C56.8242 17.7067 57.2109 18.0067 57.6642 18.22C58.1176 18.4333 58.6376 18.54 59.2242 18.54C59.7976 18.54 60.3109 18.4333 60.7642 18.22C61.2309 18.0067 61.6176 17.7067 61.9242 17.32C62.2442 16.92 62.4842 16.4467 62.6442 15.9C62.8176 15.3533 62.9042 14.74 62.9042 14.06C62.9042 13.38 62.8176 12.7667 62.6442 12.22C62.4842 11.66 62.2442 11.1867 61.9242 10.8C61.6176 10.4 61.2309 10.0933 60.7642 9.88C60.3109 9.66667 59.7976 9.56 59.2242 9.56C58.6376 9.56 58.1176 9.67333 57.6642 9.9C57.2109 10.1133 56.8242 10.42 56.5042 10.82C56.1976 11.2067 55.9576 11.68 55.7842 12.24C55.6242 12.7867 55.5442 13.3933 55.5442 14.06ZM66.1242 14.06C66.1242 15.2467 65.9442 16.2933 65.5842 17.2C65.2376 18.0933 64.7576 18.8467 64.1442 19.46C63.5309 20.06 62.7976 20.5133 61.9442 20.82C61.1042 21.1267 60.1976 21.28 59.2242 21.28C58.2776 21.28 57.3842 21.1267 56.5442 20.82C55.7042 20.5133 54.9709 20.06 54.3442 19.46C53.7176 18.8467 53.2242 18.0933 52.8642 17.2C52.5042 16.2933 52.3242 15.2467 52.3242 14.06C52.3242 12.8733 52.5109 11.8333 52.8842 10.94C53.2576 10.0333 53.7576 9.27333 54.3842 8.66C55.0242 8.04667 55.7576 7.58667 56.5842 7.28C57.4242 6.97333 58.3042 6.82 59.2242 6.82C60.1709 6.82 61.0642 6.97333 61.9042 7.28C62.7442 7.58667 63.4776 8.04667 64.1042 8.66C64.7309 9.27333 65.2242 10.0333 65.5842 10.94C65.9442 11.8333 66.1242 12.8733 66.1242 14.06ZM74.145 21.28C73.1717 21.28 72.3317 21.1467 71.625 20.88C70.9183 20.6 70.3317 20.22 69.865 19.74C69.4117 19.2467 69.0717 18.6667 68.845 18C68.6317 17.32 68.525 16.5733 68.525 15.76V7.14H71.645V15.5C71.645 16.06 71.705 16.54 71.825 16.94C71.9583 17.3267 72.1317 17.6467 72.345 17.9C72.5717 18.14 72.8383 18.3133 73.145 18.42C73.465 18.5267 73.8117 18.58 74.185 18.58C74.945 18.58 75.5583 18.3467 76.025 17.88C76.505 17.4133 76.745 16.62 76.745 15.5V7.14H79.865V15.76C79.865 16.5733 79.7517 17.32 79.525 18C79.2983 18.68 78.9517 19.2667 78.485 19.76C78.0183 20.24 77.425 20.6133 76.705 20.88C75.985 21.1467 75.1317 21.28 74.145 21.28ZM86.9256 6.98C89.0056 6.98 90.599 7.35333 91.7056 8.1C92.8123 8.83333 93.3656 9.98 93.3656 11.54C93.3656 12.5133 93.139 13.3067 92.6856 13.92C92.2456 14.52 91.6056 14.9933 90.7656 15.34C91.0456 15.6867 91.339 16.0867 91.6456 16.54C91.9523 16.98 92.2523 17.4467 92.5456 17.94C92.8523 18.42 93.1456 18.9267 93.4256 19.46C93.7056 19.98 93.9656 20.4933 94.2056 21H90.7056C90.4523 20.5467 90.1923 20.0867 89.9256 19.62C89.6723 19.1533 89.4056 18.7 89.1256 18.26C88.859 17.82 88.5923 17.4067 88.3256 17.02C88.059 16.62 87.7923 16.26 87.5256 15.94H85.9856V21H82.8656V7.34C83.5456 7.20667 84.2456 7.11333 84.9656 7.06C85.699 7.00667 86.3523 6.98 86.9256 6.98ZM87.1056 9.64C86.879 9.64 86.6723 9.64667 86.4856 9.66C86.3123 9.67333 86.1456 9.68667 85.9856 9.7V13.46H86.8656C88.039 13.46 88.879 13.3133 89.3856 13.02C89.8923 12.7267 90.1456 12.2267 90.1456 11.52C90.1456 10.84 89.8856 10.36 89.3656 10.08C88.859 9.78667 88.1056 9.64 87.1056 9.64Z" fill="white"/>
<path d="M32.3992 10.4004H16.1992V11.6004H32.3992V10.4004Z" fill="white"/>
<path d="M26.3992 12.7998H16.1992V13.9998H26.3992V12.7998Z" fill="white"/>
<path d="M26.3992 15.2002H16.1992V16.4002H26.3992V15.2002Z" fill="white"/>
<path d="M32.4 8H21V9.2H32.4V8Z" fill="white"/>
<path d="M19.7996 8H18.5996V9.2H19.7996V8Z" fill="white"/>
<path d="M18.6004 29H17.4004V30.2H18.6004V29Z" fill="white"/>
<path d="M10.0249 9.02418L9.17645 8.17578L7.97645 9.37578C7.74222 9.61008 7.74222 9.98988 7.97645 10.2242L9.17645 11.4242L10.0249 10.5758L9.24905 9.79998L10.0249 9.02418Z" fill="white"/>
<path d="M14.8238 9.37578L13.6238 8.17578L12.7754 9.02418L13.5512 9.79998L12.7754 10.5758L13.6238 11.4242L14.8238 10.2242C15.058 9.98988 15.058 9.61008 14.8238 9.37578Z" fill="white"/>
<path d="M11.4316 7.80924L10.2305 11.4092L11.3682 11.7888L12.5693 8.18885L11.4316 7.80924Z" fill="white"/>
<path d="M31.1992 23.5996V18.7996H29.9992V23.5996H28.7992V17.5996H27.5992V23.5996H26.3992V20.5996H25.1992V23.5996H23.9992V19.9996H22.7992V23.5996H21.5992V21.1996H20.3992V23.5996H19.1992V24.7996H32.3992V23.5996H31.1992Z" fill="white"/>
<path d="M31.7996 5H4.19961C2.21218 5.00195 0.601559 6.61258 0.599609 8.6V20.3756V20.381V27.2V29C0.601559 30.9874 2.21218 32.5981 4.19961 32.6H11.6288L9.22881 37.4H5.99961C5.00548 37.4 4.19961 38.2059 4.19961 39.2C4.19961 40.1941 5.00548 41 5.99961 41H29.9996C30.9937 41 31.7996 40.1941 31.7996 39.2C31.7996 38.2059 30.9937 37.4 29.9996 37.4H26.7704L24.3704 32.6H31.7996C33.787 32.5981 35.3977 30.9874 35.3996 29V8.6C35.3977 6.61258 33.787 5.00195 31.7996 5ZM1.79961 13.442L3.16341 15.0656C3.27741 15.2014 3.44571 15.2798 3.62301 15.2798H5.45961C5.63691 15.2798 5.80521 15.2014 5.91921 15.0656L7.28361 13.442L8.63001 13.8794L8.77881 15.9932C8.79111 16.17 8.88096 16.3323 9.02421 16.4366L10.5104 17.5166C10.6542 17.6204 10.8363 17.6557 11.0084 17.6132L13.0682 17.1014L13.901 18.2468L12.7784 20.0468C12.6854 20.1977 12.6639 20.382 12.7196 20.5502L13.2878 22.2968C13.3425 22.4653 13.4687 22.601 13.6328 22.6676L15.5996 23.465V24.881L13.6316 25.6784C13.4671 25.7447 13.3407 25.8808 13.2866 26.0498L13.1066 26.6H9.65001C10.9946 23.7848 9.80241 20.4126 6.98721 19.068C5.33368 18.2782 3.39973 18.3396 1.79961 19.2326V13.442ZM1.79961 20.66C3.74031 19.146 6.54096 19.4919 8.05491 21.4327C9.22386 22.931 9.31408 25.0058 8.27961 26.6H1.79961V20.66ZM29.9996 38.6C30.331 38.6 30.5996 38.8687 30.5996 39.2C30.5996 39.5314 30.331 39.8 29.9996 39.8H5.99961C5.66826 39.8 5.39961 39.5314 5.39961 39.2C5.39961 38.8687 5.66826 38.6 5.99961 38.6H29.9996ZM25.4288 37.4H10.5704L12.9704 32.6H23.0288L25.4288 37.4ZM34.1996 29C34.1996 30.3255 33.1251 31.4 31.7996 31.4H4.19961C2.87413 31.4 1.79961 30.3255 1.79961 29V27.8H8.59281H8.59821H34.1996V29ZM34.1996 26.6H14.5526L16.4252 25.841C16.6514 25.7492 16.7995 25.5295 16.7996 25.2854V23.06C16.7997 22.8157 16.6516 22.5957 16.4252 22.5038L14.3396 21.6602L13.9448 20.4452L15.134 18.5372C15.263 18.3299 15.2535 18.0652 15.11 17.8676L13.802 16.0676C13.6584 15.8698 13.4092 15.7789 13.172 15.8378L10.9904 16.3778L9.95961 15.629L9.80181 13.391C9.78463 13.147 9.62106 12.9379 9.38841 12.8624L7.27341 12.1748C7.04068 12.1007 6.78628 12.1738 6.62841 12.3602L5.18421 14.0792H3.90441L2.45961 12.3602C2.30166 12.1736 2.04688 12.1004 1.81401 12.1748L1.79961 12.1802V8.6C1.79961 7.27453 2.87413 6.2 4.19961 6.2H31.7996C33.1251 6.2 34.1996 7.27453 34.1996 8.6V26.6Z" fill="white"/>
</svg>
