<svg width="76" height="42" viewBox="0 0 76 42" fill="none" xmlns="http://www.w3.org/2000/svg">
<path d="M4.608 38.18C4.024 38.18 3.492 38.084 3.012 37.892C2.532 37.7 2.12 37.42 1.776 37.052C1.432 36.684 1.164 36.232 0.972 35.696C0.788 35.152 0.696 34.532 0.696 33.836C0.696 33.14 0.8 32.524 1.008 31.988C1.224 31.444 1.512 30.988 1.872 30.62C2.232 30.252 2.652 29.972 3.132 29.78C3.612 29.588 4.124 29.492 4.668 29.492C5.012 29.492 5.32 29.516 5.592 29.564C5.872 29.612 6.112 29.668 6.312 29.732C6.52 29.796 6.688 29.86 6.816 29.924C6.944 29.988 7.032 30.036 7.08 30.068L6.744 31.028C6.672 30.98 6.568 30.928 6.432 30.872C6.296 30.816 6.14 30.76 5.964 30.704C5.796 30.648 5.608 30.604 5.4 30.572C5.2 30.532 4.996 30.512 4.788 30.512C4.348 30.512 3.952 30.588 3.6 30.74C3.248 30.892 2.948 31.112 2.7 31.4C2.452 31.688 2.26 32.04 2.124 32.456C1.996 32.864 1.932 33.324 1.932 33.836C1.932 34.332 1.988 34.784 2.1 35.192C2.22 35.6 2.396 35.952 2.628 36.248C2.86 36.536 3.148 36.76 3.492 36.92C3.844 37.08 4.252 37.16 4.716 37.16C5.252 37.16 5.696 37.104 6.048 36.992C6.4 36.88 6.664 36.78 6.84 36.692L7.14 37.652C7.084 37.692 6.984 37.744 6.84 37.808C6.696 37.864 6.516 37.92 6.3 37.976C6.084 38.032 5.832 38.08 5.544 38.12C5.256 38.16 4.944 38.18 4.608 38.18ZM21.643 33.836C21.643 33.124 21.747 32.496 21.955 31.952C22.171 31.408 22.459 30.956 22.819 30.596C23.187 30.228 23.611 29.952 24.091 29.768C24.579 29.584 25.095 29.492 25.639 29.492C26.175 29.492 26.679 29.584 27.151 29.768C27.631 29.952 28.051 30.228 28.411 30.596C28.771 30.956 29.055 31.408 29.263 31.952C29.479 32.496 29.587 33.124 29.587 33.836C29.587 34.548 29.479 35.176 29.263 35.72C29.055 36.264 28.771 36.72 28.411 37.088C28.051 37.448 27.631 37.72 27.151 37.904C26.679 38.088 26.175 38.18 25.639 38.18C25.095 38.18 24.579 38.088 24.091 37.904C23.611 37.72 23.187 37.448 22.819 37.088C22.459 36.72 22.171 36.264 21.955 35.72C21.747 35.176 21.643 34.548 21.643 33.836ZM22.867 33.836C22.867 34.34 22.931 34.8 23.059 35.216C23.187 35.624 23.367 35.972 23.599 36.26C23.839 36.548 24.127 36.772 24.463 36.932C24.807 37.084 25.191 37.16 25.615 37.16C26.039 37.16 26.419 37.084 26.755 36.932C27.091 36.772 27.375 36.548 27.607 36.26C27.847 35.972 28.031 35.624 28.159 35.216C28.287 34.8 28.351 34.34 28.351 33.836C28.351 33.332 28.287 32.876 28.159 32.468C28.031 32.052 27.847 31.7 27.607 31.412C27.375 31.124 27.091 30.904 26.755 30.752C26.419 30.592 26.039 30.512 25.615 30.512C25.191 30.512 24.807 30.592 24.463 30.752C24.127 30.904 23.839 31.124 23.599 31.412C23.367 31.7 23.187 32.052 23.059 32.468C22.931 32.876 22.867 33.332 22.867 33.836ZM48.7909 36.848C48.7109 36.656 48.6029 36.412 48.4669 36.116C48.3389 35.82 48.1989 35.5 48.0469 35.156C47.8949 34.812 47.7309 34.46 47.5549 34.1C47.3869 33.732 47.2269 33.388 47.0749 33.068C46.9229 32.74 46.7789 32.448 46.6429 32.192C46.5149 31.936 46.4109 31.74 46.3309 31.604C46.2429 32.548 46.1709 33.572 46.1149 34.676C46.0589 35.772 46.0109 36.88 45.9709 38H44.8309C44.8629 37.28 44.8989 36.556 44.9389 35.828C44.9789 35.092 45.0229 34.372 45.0709 33.668C45.1269 32.956 45.1829 32.264 45.2389 31.592C45.3029 30.92 45.3709 30.284 45.4429 29.684H46.4629C46.6789 30.036 46.9109 30.452 47.1589 30.932C47.4069 31.412 47.6549 31.916 47.9029 32.444C48.1509 32.964 48.3909 33.488 48.6229 34.016C48.8549 34.536 49.0669 35.012 49.2589 35.444C49.4509 35.012 49.6629 34.536 49.8949 34.016C50.1269 33.488 50.3669 32.964 50.6149 32.444C50.8629 31.916 51.1109 31.412 51.3589 30.932C51.6069 30.452 51.8389 30.036 52.0549 29.684H53.0749C53.3469 32.364 53.5509 35.136 53.6869 38H52.5469C52.5069 36.88 52.4589 35.772 52.4029 34.676C52.3469 33.572 52.2749 32.548 52.1869 31.604C52.1069 31.74 51.9989 31.936 51.8629 32.192C51.7349 32.448 51.5949 32.74 51.4429 33.068C51.2909 33.388 51.1269 33.732 50.9509 34.1C50.7829 34.46 50.6229 34.812 50.4709 35.156C50.3189 35.5 50.1749 35.82 50.0389 36.116C49.9109 36.412 49.8069 36.656 49.7269 36.848H48.7909ZM71.46 29.6C72.628 29.6 73.524 29.824 74.148 30.272C74.78 30.712 75.096 31.372 75.096 32.252C75.096 32.732 75.008 33.144 74.832 33.488C74.664 33.824 74.416 34.1 74.088 34.316C73.768 34.524 73.376 34.676 72.912 34.772C72.448 34.868 71.924 34.916 71.34 34.916H70.416V38H69.252V29.804C69.58 29.724 69.944 29.672 70.344 29.648C70.752 29.616 71.124 29.6 71.46 29.6ZM71.556 30.62C71.06 30.62 70.68 30.632 70.416 30.656V33.92H71.292C71.692 33.92 72.052 33.896 72.372 33.848C72.692 33.792 72.96 33.704 73.176 33.584C73.4 33.456 73.572 33.284 73.692 33.068C73.812 32.852 73.872 32.576 73.872 32.24C73.872 31.92 73.808 31.656 73.68 31.448C73.56 31.24 73.392 31.076 73.176 30.956C72.968 30.828 72.724 30.74 72.444 30.692C72.164 30.644 71.868 30.62 71.556 30.62Z" fill="white"/>
<path d="M6.68 12.84C7.24 11.8933 7.77333 10.9467 8.28 10C8.78667 9.05333 9.25333 8.1 9.68 7.14H13.12C12.36 8.63333 11.5733 10.08 10.76 11.48C9.94667 12.88 9.08667 14.2867 8.18 15.7V21H5.06V15.74C4.15333 14.3267 3.28667 12.9133 2.46 11.5C1.64667 10.0867 0.86 8.63333 0.1 7.14H3.72C4.14667 8.1 4.60667 9.05333 5.1 10C5.59333 10.9467 6.12 11.8933 6.68 12.84ZM16.5442 14.06C16.5442 14.74 16.6242 15.3533 16.7842 15.9C16.9576 16.4467 17.1976 16.92 17.5042 17.32C17.8242 17.7067 18.2109 18.0067 18.6642 18.22C19.1176 18.4333 19.6376 18.54 20.2242 18.54C20.7976 18.54 21.3109 18.4333 21.7642 18.22C22.2309 18.0067 22.6176 17.7067 22.9242 17.32C23.2442 16.92 23.4842 16.4467 23.6442 15.9C23.8176 15.3533 23.9042 14.74 23.9042 14.06C23.9042 13.38 23.8176 12.7667 23.6442 12.22C23.4842 11.66 23.2442 11.1867 22.9242 10.8C22.6176 10.4 22.2309 10.0933 21.7642 9.88C21.3109 9.66667 20.7976 9.56 20.2242 9.56C19.6376 9.56 19.1176 9.67333 18.6642 9.9C18.2109 10.1133 17.8242 10.42 17.5042 10.82C17.1976 11.2067 16.9576 11.68 16.7842 12.24C16.6242 12.7867 16.5442 13.3933 16.5442 14.06ZM27.1242 14.06C27.1242 15.2467 26.9442 16.2933 26.5842 17.2C26.2376 18.0933 25.7576 18.8467 25.1442 19.46C24.5309 20.06 23.7976 20.5133 22.9442 20.82C22.1042 21.1267 21.1976 21.28 20.2242 21.28C19.2776 21.28 18.3842 21.1267 17.5442 20.82C16.7042 20.5133 15.9709 20.06 15.3442 19.46C14.7176 18.8467 14.2242 18.0933 13.8642 17.2C13.5042 16.2933 13.3242 15.2467 13.3242 14.06C13.3242 12.8733 13.5109 11.8333 13.8842 10.94C14.2576 10.0333 14.7576 9.27333 15.3842 8.66C16.0242 8.04667 16.7576 7.58667 17.5842 7.28C18.4242 6.97333 19.3042 6.82 20.2242 6.82C21.1709 6.82 22.0642 6.97333 22.9042 7.28C23.7442 7.58667 24.4776 8.04667 25.1042 8.66C25.7309 9.27333 26.2242 10.0333 26.5842 10.94C26.9442 11.8333 27.1242 12.8733 27.1242 14.06ZM35.145 21.28C34.1717 21.28 33.3317 21.1467 32.625 20.88C31.9183 20.6 31.3317 20.22 30.865 19.74C30.4117 19.2467 30.0717 18.6667 29.845 18C29.6317 17.32 29.525 16.5733 29.525 15.76V7.14H32.645V15.5C32.645 16.06 32.705 16.54 32.825 16.94C32.9583 17.3267 33.1317 17.6467 33.345 17.9C33.5717 18.14 33.8383 18.3133 34.145 18.42C34.465 18.5267 34.8117 18.58 35.185 18.58C35.945 18.58 36.5583 18.3467 37.025 17.88C37.505 17.4133 37.745 16.62 37.745 15.5V7.14H40.865V15.76C40.865 16.5733 40.7517 17.32 40.525 18C40.2983 18.68 39.9517 19.2667 39.485 19.76C39.0183 20.24 38.425 20.6133 37.705 20.88C36.985 21.1467 36.1317 21.28 35.145 21.28ZM47.9256 6.98C50.0056 6.98 51.599 7.35333 52.7056 8.1C53.8123 8.83333 54.3656 9.98 54.3656 11.54C54.3656 12.5133 54.139 13.3067 53.6856 13.92C53.2456 14.52 52.6056 14.9933 51.7656 15.34C52.0456 15.6867 52.339 16.0867 52.6456 16.54C52.9523 16.98 53.2523 17.4467 53.5456 17.94C53.8523 18.42 54.1456 18.9267 54.4256 19.46C54.7056 19.98 54.9656 20.4933 55.2056 21H51.7056C51.4523 20.5467 51.1923 20.0867 50.9256 19.62C50.6723 19.1533 50.4056 18.7 50.1256 18.26C49.859 17.82 49.5923 17.4067 49.3256 17.02C49.059 16.62 48.7923 16.26 48.5256 15.94H46.9856V21H43.8656V7.34C44.5456 7.20667 45.2456 7.11333 45.9656 7.06C46.699 7.00667 47.3523 6.98 47.9256 6.98ZM48.1056 9.64C47.879 9.64 47.6723 9.64667 47.4856 9.66C47.3123 9.67333 47.1456 9.68667 46.9856 9.7V13.46H47.8656C49.039 13.46 49.879 13.3133 50.3856 13.02C50.8923 12.7267 51.1456 12.2267 51.1456 11.52C51.1456 10.84 50.8856 10.36 50.3656 10.08C49.859 9.78667 49.1056 9.64 48.1056 9.64Z" fill="white"/>
</svg>
