<svg width="36" height="36" viewBox="0 0 36 36" fill="none" xmlns="http://www.w3.org/2000/svg">
<path d="M31.7996 0H4.19961C2.21218 0.00195 0.601559 1.61258 0.599609 3.6V15.3756V15.381V22.2V24C0.601559 25.9874 2.21218 27.5981 4.19961 27.6H11.6288L9.22881 32.4H5.99961C5.00548 32.4 4.19961 33.2059 4.19961 34.2C4.19961 35.1941 5.00548 36 5.99961 36H29.9996C30.9937 36 31.7996 35.1941 31.7996 34.2C31.7996 33.2059 30.9937 32.4 29.9996 32.4H26.7704L24.3704 27.6H31.7996C33.787 27.5981 35.3977 25.9874 35.3996 24V3.6C35.3977 1.61258 33.787 0.00195 31.7996 0ZM1.79961 8.442L3.16341 10.0656C3.27741 10.2014 3.44571 10.2798 3.62301 10.2798H5.45961C5.63691 10.2798 5.80521 10.2014 5.91921 10.0656L7.28361 8.442L8.63001 8.8794L8.77881 10.9932C8.79111 11.17 8.88096 11.3323 9.02421 11.4366L10.5104 12.5166C10.6542 12.6204 10.8363 12.6557 11.0084 12.6132L13.0682 12.1014L13.901 13.2468L12.7784 15.0468C12.6854 15.1977 12.6639 15.382 12.7196 15.5502L13.2878 17.2968C13.3425 17.4653 13.4687 17.601 13.6328 17.6676L15.5996 18.465V19.881L13.6316 20.6784C13.4671 20.7447 13.3407 20.8808 13.2866 21.0498L13.1066 21.6H9.65001C10.9946 18.7848 9.80241 15.4126 6.98721 14.068C5.33368 13.2782 3.39973 13.3396 1.79961 14.2326V8.442ZM1.79961 15.66C3.74031 14.146 6.54096 14.4919 8.05491 16.4327C9.22386 17.931 9.31408 20.0058 8.27961 21.6H1.79961V15.66ZM29.9996 33.6C30.331 33.6 30.5996 33.8687 30.5996 34.2C30.5996 34.5314 30.331 34.8 29.9996 34.8H5.99961C5.66826 34.8 5.39961 34.5314 5.39961 34.2C5.39961 33.8687 5.66826 33.6 5.99961 33.6H29.9996ZM25.4288 32.4H10.5704L12.9704 27.6H23.0288L25.4288 32.4ZM34.1996 24C34.1996 25.3255 33.1251 26.4 31.7996 26.4H4.19961C2.87413 26.4 1.79961 25.3255 1.79961 24V22.8H8.59281H8.59821H34.1996V24ZM34.1996 21.6H14.5526L16.4252 20.841C16.6514 20.7492 16.7995 20.5295 16.7996 20.2854V18.06C16.7997 17.8157 16.6516 17.5957 16.4252 17.5038L14.3396 16.6602L13.9448 15.4452L15.134 13.5372C15.263 13.3299 15.2535 13.0652 15.11 12.8676L13.802 11.0676C13.6584 10.8698 13.4092 10.7789 13.172 10.8378L10.9904 11.3778L9.95961 10.629L9.80181 8.391C9.78463 8.14703 9.62106 7.93785 9.38841 7.8624L7.27341 7.1748C7.04068 7.1007 6.78628 7.17383 6.62841 7.3602L5.18421 9.0792H3.90441L2.45961 7.3602C2.30166 7.1736 2.04688 7.1004 1.81401 7.1748L1.79961 7.1802V3.6C1.79961 2.27453 2.87413 1.2 4.19961 1.2H31.7996C33.1251 1.2 34.1996 2.27453 34.1996 3.6V21.6Z" fill="white"/>
</svg>
